<svg width="414" height="26" viewBox="0 0 414 26" fill="none" xmlns="http://www.w3.org/2000/svg">
<path d="M13.246 25.476C17.632 25.476 21.168 23.878 23.48 20.988L19.196 17.112C17.7 18.914 15.864 19.9 13.586 19.9C9.676 19.9 6.956 17.18 6.956 13.1C6.956 9.02 9.676 6.3 13.586 6.3C15.864 6.3 17.7 7.286 19.196 9.088L23.48 5.212C21.168 2.322 17.632 0.723998 13.246 0.723998C5.698 0.723998 0.156 5.858 0.156 13.1C0.156 20.342 5.698 25.476 13.246 25.476ZM37.8495 25.476C42.2355 25.476 45.7715 23.878 48.0835 20.988L43.7995 17.112C42.3035 18.914 40.4675 19.9 38.1895 19.9C34.2795 19.9 31.5595 17.18 31.5595 13.1C31.5595 9.02 34.2795 6.3 38.1895 6.3C40.4675 6.3 42.3035 7.286 43.7995 9.088L48.0835 5.212C45.7715 2.322 42.2355 0.723998 37.8495 0.723998C30.3015 0.723998 24.7595 5.858 24.7595 13.1C24.7595 20.342 30.3015 25.476 37.8495 25.476ZM66.533 19.118C65.343 19.662 64.153 19.9 62.895 19.9C58.883 19.9 56.163 17.112 56.163 13.1C56.163 8.986 58.883 6.3 62.963 6.3C65.241 6.3 67.111 7.15 68.743 8.952L73.027 5.076C70.681 2.254 67.077 0.723998 62.623 0.723998C54.905 0.723998 49.363 5.858 49.363 13.1C49.363 20.342 54.905 25.476 62.487 25.476C65.955 25.476 69.729 24.422 72.483 22.45V12.59H66.533V19.118ZM95.0431 12.59C97.0831 11.536 98.2391 9.7 98.2391 7.422C98.2391 3.75 95.1791 1.2 88.9231 1.2H76.7511V25H89.6031C95.9951 25 99.3951 22.586 99.3951 18.472C99.3951 15.582 97.7291 13.542 95.0431 12.59ZM88.0391 6.062C90.2831 6.062 91.4391 6.844 91.4391 8.34C91.4391 9.87 90.2831 10.652 88.0391 10.652H83.4151V6.062H88.0391ZM89.0591 20.138H83.4151V15.31H89.0591C91.3711 15.31 92.5951 16.092 92.5951 17.724C92.5951 19.356 91.3711 20.138 89.0591 20.138ZM107.616 25H114.348V6.538H121.624V1.2H100.306V6.538H107.616V25ZM135.666 25.476C140.052 25.476 143.588 23.878 145.9 20.988L141.616 17.112C140.12 18.914 138.284 19.9 136.006 19.9C132.096 19.9 129.376 17.18 129.376 13.1C129.376 9.02 132.096 6.3 136.006 6.3C138.284 6.3 140.12 7.286 141.616 9.088L145.9 5.212C143.588 2.322 140.052 0.723998 135.666 0.723998C128.118 0.723998 122.576 5.858 122.576 13.1C122.576 20.342 128.118 25.476 135.666 25.476ZM160.405 25.476C168.021 25.476 173.631 20.24 173.631 13.1C173.631 5.96 168.021 0.723998 160.405 0.723998C152.789 0.723998 147.179 5.96 147.179 13.1C147.179 20.24 152.789 25.476 160.405 25.476ZM160.405 19.9C156.801 19.9 153.979 17.214 153.979 13.1C153.979 8.986 156.801 6.3 160.405 6.3C164.009 6.3 166.831 8.986 166.831 13.1C166.831 17.214 164.009 19.9 160.405 19.9ZM193.205 1.2V13.882L182.699 1.2H177.157V25H183.753V12.318L194.259 25H199.801V1.2H193.205ZM211.214 19.798V15.446H221.788V10.414H211.214V6.402H223.216V1.2H204.55V25H223.658V19.798H211.214ZM253.336 1.2V13.882L242.83 1.2H237.288V25H243.884V12.318L254.39 25H259.932V1.2H253.336ZM283.347 6.402V1.2H264.681V25H271.413V16.84H281.919V11.638H271.413V6.402H283.347ZM291.727 25H298.459V6.538H305.735V1.2H284.417V6.538H291.727V25ZM330.004 25.476C334.39 25.476 337.926 23.878 340.238 20.988L335.954 17.112C334.458 18.914 332.622 19.9 330.344 19.9C326.434 19.9 323.714 17.18 323.714 13.1C323.714 9.02 326.434 6.3 330.344 6.3C332.622 6.3 334.458 7.286 335.954 9.088L340.238 5.212C337.926 2.322 334.39 0.723998 330.004 0.723998C322.456 0.723998 316.914 5.858 316.914 13.1C316.914 20.342 322.456 25.476 330.004 25.476ZM343.239 25H361.327V19.662H349.971V1.2H343.239V25ZM374.741 25.476C381.779 25.476 385.927 21.498 385.927 14.392V1.2H379.297V14.188C379.297 18.268 377.597 19.9 374.809 19.9C371.987 19.9 370.287 18.268 370.287 14.188V1.2H363.555V14.392C363.555 21.498 367.703 25.476 374.741 25.476ZM408.779 12.59C410.819 11.536 411.975 9.7 411.975 7.422C411.975 3.75 408.915 1.2 402.659 1.2H390.487V25H403.339C409.731 25 413.131 22.586 413.131 18.472C413.131 15.582 411.465 13.542 408.779 12.59ZM401.775 6.062C404.019 6.062 405.175 6.844 405.175 8.34C405.175 9.87 404.019 10.652 401.775 10.652H397.151V6.062H401.775ZM402.795 20.138H397.151V15.31H402.795C405.107 15.31 406.331 16.092 406.331 17.724C406.331 19.356 405.107 20.138 402.795 20.138Z" fill="url(#paint0_linear_80_10)"/>
<defs>
<linearGradient id="paint0_linear_80_10" x1="-1" y1="33" x2="232.641" y2="-194.929" gradientUnits="userSpaceOnUse">
<stop stop-color="#FFCC00"/>
<stop offset="1" stop-color="#E64656"/>
</linearGradient>
</defs>
</svg>
