<svg width="293" height="18" viewBox="0 0 293 18" fill="none" xmlns="http://www.w3.org/2000/svg">
<path d="M10.056 17.836C13.152 17.836 15.648 16.708 17.28 14.668L14.256 11.932C13.2 13.204 11.904 13.9 10.296 13.9C7.536 13.9 5.616 11.98 5.616 9.1C5.616 6.22 7.536 4.3 10.296 4.3C11.904 4.3 13.2 4.996 14.256 6.268L17.28 3.532C15.648 1.492 13.152 0.363999 10.056 0.363999C4.728 0.363999 0.816 3.988 0.816 9.1C0.816 14.212 4.728 17.836 10.056 17.836ZM27.4232 17.836C30.5192 17.836 33.0152 16.708 34.6472 14.668L31.6232 11.932C30.5672 13.204 29.2712 13.9 27.6632 13.9C24.9032 13.9 22.9832 11.98 22.9832 9.1C22.9832 6.22 24.9032 4.3 27.6632 4.3C29.2712 4.3 30.5672 4.996 31.6232 6.268L34.6472 3.532C33.0152 1.492 30.5192 0.363999 27.4232 0.363999C22.0952 0.363999 18.1832 3.988 18.1832 9.1C18.1832 14.212 22.0952 17.836 27.4232 17.836ZM47.6704 13.348C46.8304 13.732 45.9904 13.9 45.1024 13.9C42.2704 13.9 40.3504 11.932 40.3504 9.1C40.3504 6.196 42.2704 4.3 45.1504 4.3C46.7584 4.3 48.0784 4.9 49.2304 6.172L52.2544 3.436C50.5984 1.444 48.0544 0.363999 44.9104 0.363999C39.4624 0.363999 35.5504 3.988 35.5504 9.1C35.5504 14.212 39.4624 17.836 44.8144 17.836C47.2624 17.836 49.9264 17.092 51.8704 15.7V8.74H47.6704V13.348ZM67.7951 8.74C69.2351 7.996 70.0511 6.7 70.0511 5.092C70.0511 2.5 67.8911 0.699999 63.4751 0.699999H54.8831V17.5H63.9551C68.4671 17.5 70.8671 15.796 70.8671 12.892C70.8671 10.852 69.6911 9.412 67.7951 8.74ZM62.8511 4.132C64.4351 4.132 65.2511 4.684 65.2511 5.74C65.2511 6.82 64.4351 7.372 62.8511 7.372H59.5871V4.132H62.8511ZM63.5711 14.068H59.5871V10.66H63.5711C65.2031 10.66 66.0671 11.212 66.0671 12.364C66.0671 13.516 65.2031 14.068 63.5711 14.068ZM76.6701 17.5H81.4221V4.468H86.5581V0.699999H71.5101V4.468H76.6701V17.5ZM96.4701 17.836C99.5661 17.836 102.062 16.708 103.694 14.668L100.67 11.932C99.6141 13.204 98.3181 13.9 96.7101 13.9C93.9501 13.9 92.0301 11.98 92.0301 9.1C92.0301 6.22 93.9501 4.3 96.7101 4.3C98.3181 4.3 99.6141 4.996 100.67 6.268L103.694 3.532C102.062 1.492 99.5661 0.363999 96.4701 0.363999C91.1421 0.363999 87.2301 3.988 87.2301 9.1C87.2301 14.212 91.1421 17.836 96.4701 17.836ZM113.933 17.836C119.309 17.836 123.269 14.14 123.269 9.1C123.269 4.06 119.309 0.363999 113.933 0.363999C108.557 0.363999 104.597 4.06 104.597 9.1C104.597 14.14 108.557 17.836 113.933 17.836ZM113.933 13.9C111.389 13.9 109.397 12.004 109.397 9.1C109.397 6.196 111.389 4.3 113.933 4.3C116.477 4.3 118.469 6.196 118.469 9.1C118.469 12.004 116.477 13.9 113.933 13.9ZM137.086 0.699999V9.652L129.67 0.699999H125.758V17.5H130.414V8.548L137.83 17.5H141.742V0.699999H137.086ZM149.798 13.828V10.756H157.262V7.204H149.798V4.372H158.27V0.699999H145.094V17.5H158.582V13.828H149.798ZM179.531 0.699999V9.652L172.115 0.699999H168.203V17.5H172.859V8.548L180.275 17.5H184.187V0.699999H179.531ZM200.715 4.372V0.699999H187.539V17.5H192.291V11.74H199.707V8.068H192.291V4.372H200.715ZM206.631 17.5H211.383V4.468H216.519V0.699999H201.471V4.468H206.631V17.5ZM233.65 17.836C236.746 17.836 239.242 16.708 240.874 14.668L237.85 11.932C236.794 13.204 235.498 13.9 233.89 13.9C231.13 13.9 229.21 11.98 229.21 9.1C229.21 6.22 231.13 4.3 233.89 4.3C235.498 4.3 236.794 4.996 237.85 6.268L240.874 3.532C239.242 1.492 236.746 0.363999 233.65 0.363999C228.322 0.363999 224.41 3.988 224.41 9.1C224.41 14.212 228.322 17.836 233.65 17.836ZM242.993 17.5H255.761V13.732H247.745V0.699999H242.993V17.5ZM265.229 17.836C270.197 17.836 273.125 15.028 273.125 10.012V0.699999H268.445V9.868C268.445 12.748 267.245 13.9 265.277 13.9C263.285 13.9 262.085 12.748 262.085 9.868V0.699999H257.333V10.012C257.333 15.028 260.261 17.836 265.229 17.836ZM289.256 8.74C290.696 7.996 291.512 6.7 291.512 5.092C291.512 2.5 289.352 0.699999 284.936 0.699999H276.344V17.5H285.416C289.928 17.5 292.328 15.796 292.328 12.892C292.328 10.852 291.152 9.412 289.256 8.74ZM284.312 4.132C285.896 4.132 286.712 4.684 286.712 5.74C286.712 6.82 285.896 7.372 284.312 7.372H281.048V4.132H284.312ZM285.032 14.068H281.048V10.66H285.032C286.664 10.66 287.528 11.212 287.528 12.364C287.528 13.516 286.664 14.068 285.032 14.068Z" fill="url(#paint0_linear_7_9)"/>
<defs>
<linearGradient id="paint0_linear_7_9" x1="0" y1="23.5" x2="165.255" y2="-137.581" gradientUnits="userSpaceOnUse">
<stop stop-color="#FFCC00"/>
<stop offset="1" stop-color="#E64656"/>
</linearGradient>
</defs>
</svg>
